<svg version="1.1" id="Layer_1" xmlns="http://www.w3.org/2000/svg" xmlns:xlink="http://www.w3.org/1999/xlink" x="0px" y="0px"
	 width="100%" viewBox="0 0 1024 1024" enable-background="new 0 0 1024 1024" xml:space="preserve">
<path fill="#000000" opacity="1.000000" stroke="none" 
	d="
M458.655365,749.211670 
	C457.376373,741.005615 454.985962,733.571106 451.725891,726.423340 
	C445.156525,712.020020 433.222626,707.244202 418.452423,712.543091 
	C407.361237,716.522156 397.589783,722.880615 387.460266,728.630493 
	C382.674011,731.347290 377.848389,733.974731 372.002411,733.533691 
	C365.671082,733.056091 361.990662,729.355164 361.650482,722.991455 
	C361.260468,715.695557 363.818359,708.895447 365.128632,701.888855 
	C365.963684,697.423340 366.228241,692.945007 365.688904,688.466003 
	C364.619385,679.584045 356.954010,673.921997 348.184448,675.635803 
	C335.335419,678.146973 326.387726,685.861572 320.431763,697.246033 
	C317.654358,702.554749 315.377808,708.132202 312.480927,713.370300 
	C306.723145,723.781677 298.275665,730.902283 286.369537,733.337524 
	C271.298645,736.420044 261.122803,726.284607 264.164551,711.129639 
	C265.912018,702.423218 269.075745,694.167480 273.235413,686.341431 
	C280.149292,673.333496 285.895935,659.936279 288.334595,645.281067 
	C290.719788,630.947205 283.936432,620.557129 270.378632,617.780334 
	C265.570099,616.795471 261.481110,618.539551 257.571838,620.777405 
	C253.532288,623.089905 249.765167,625.873047 245.795120,628.314026 
	C242.480942,630.351807 238.893097,631.489502 234.898407,631.391724 
	C225.428207,631.159912 219.864807,624.316528 221.732376,615.022827 
	C223.241394,607.513306 221.297028,605.584595 213.690933,607.282227 
	C206.436295,608.901428 200.730240,613.269836 195.564438,618.287292 
	C187.556549,626.065186 179.888611,634.194397 171.845367,641.934448 
	C165.237213,648.293457 157.541504,653.012085 148.200104,653.911682 
	C136.444824,655.043640 124.351799,649.915405 122.334442,636.098206 
	C121.263672,628.764343 124.383522,622.503296 129.108749,616.952332 
	C137.581863,606.998413 149.256683,602.319275 160.968765,598.001526 
	C178.299271,591.612488 196.002625,586.270508 212.727463,578.238525 
	C223.370300,573.127380 232.870590,566.527344 241.427994,558.495789 
	C244.477554,555.633606 247.032135,552.314148 248.944412,548.573669 
	C252.516983,541.585632 249.846970,536.855591 241.896484,536.345642 
	C237.247772,536.047424 232.570374,536.093079 227.907715,536.145508 
	C223.532349,536.194763 219.250702,535.698242 215.132492,534.251892 
	C203.947815,530.323608 201.039886,520.037720 208.496140,510.821106 
	C213.689407,504.401703 220.619110,500.505737 228.175415,497.584595 
	C239.197144,493.323761 250.451553,489.630280 260.711395,483.573944 
	C273.641113,475.941620 274.709839,470.574829 264.826172,459.319122 
	C253.405624,446.313080 240.654922,434.966461 224.288849,428.351715 
	C219.169876,426.282776 214.456177,423.424500 210.356903,419.668060 
	C205.352219,415.081909 201.561310,409.994232 203.749664,402.612335 
	C205.999130,395.024323 211.733078,391.471130 218.900040,389.662170 
	C228.038162,387.355713 237.122620,389.578430 246.203827,390.217010 
	C255.976746,390.904327 265.592194,390.504700 274.446930,386.014191 
	C283.208191,381.571045 284.186218,376.417419 278.768494,368.247894 
	C273.707489,360.616333 267.278442,355.095398 258.181580,352.647125 
	C249.706604,350.366302 241.947693,346.724548 236.948532,338.788788 
	C228.438828,325.280243 236.377457,309.737488 252.302826,308.644958 
	C263.201843,307.897247 273.419220,310.216949 283.513428,314.066376 
	C296.408173,318.983795 309.046692,324.765625 322.786255,327.116058 
	C329.231018,328.218536 335.734222,328.528839 342.006653,326.108032 
	C352.562195,322.034180 354.365845,312.665466 346.025330,305.114563 
	C340.766205,300.353333 334.351929,297.472076 328.022400,294.475403 
	C319.165863,290.282288 311.862793,284.598816 308.656311,274.780090 
	C306.487396,268.138672 307.658936,262.144043 312.228973,257.097534 
	C316.780029,252.072037 322.687622,251.754883 328.835510,253.723160 
	C338.868896,256.935394 346.184174,264.103760 353.609467,271.033386 
	C359.834930,276.843292 366.878876,281.023438 375.166931,283.078033 
	C380.537323,284.409393 385.598114,283.923035 389.443176,279.654449 
	C393.141449,275.548889 392.300323,270.608429 390.608948,265.953796 
	C387.682281,257.899719 382.802582,250.894867 378.129730,243.796616 
	C374.458069,238.219223 371.055511,232.501282 368.811279,226.168686 
	C366.496765,219.637863 366.553619,213.080673 368.826080,206.587143 
	C373.577118,193.011230 388.682190,188.499680 400.128326,197.250214 
	C410.329712,205.049149 413.343201,216.449127 415.298340,228.293289 
	C416.164642,233.541458 416.612762,238.859558 417.509552,244.101624 
	C419.854980,257.811157 428.860931,265.905579 444.762756,268.628937 
	C448.001282,269.183563 451.192444,269.943420 454.631775,269.012390 
	C462.486359,266.886108 466.042206,261.083923 464.030426,253.088364 
	C462.749329,247.996704 460.260223,243.499207 457.377014,239.184784 
	C454.594727,235.021378 451.868958,230.800980 450.182037,226.070236 
	C449.169739,223.231369 448.521576,220.071381 451.105042,217.649780 
	C453.532410,215.374466 456.505951,216.247772 459.141632,217.238159 
	C464.564423,219.275818 468.613068,223.342484 472.873993,227.075455 
	C478.758606,232.230927 484.367889,237.770859 491.381287,241.447327 
	C497.809174,244.816864 504.446167,243.076263 507.140900,237.214310 
	C508.963074,233.250443 509.660217,228.998032 509.123413,224.565369 
	C508.510590,219.504578 506.588074,214.950470 504.282501,210.478806 
	C502.074799,206.196991 499.746979,201.954666 499.433105,196.951889 
	C498.887329,188.251175 504.538544,183.483109 513.064819,185.687668 
	C520.893311,187.711823 525.910706,193.179062 529.576904,199.973984 
	C536.401611,212.623077 539.122986,226.497971 541.339172,240.511429 
	C542.195190,245.923996 542.933411,251.368393 545.009644,256.518555 
	C550.807129,270.899475 564.515198,273.509216 575.066833,262.129791 
	C580.705994,256.048218 583.961853,248.494934 587.529663,241.155960 
	C592.262024,231.421524 596.514587,221.437973 602.319824,212.258575 
	C606.028320,206.394669 610.691467,201.458572 616.972412,198.284653 
	C625.368774,194.041794 634.086304,195.029907 640.730713,200.896851 
	C647.192993,206.602859 649.215210,214.853867 646.064819,223.722198 
	C643.024048,232.281738 637.884521,239.704483 632.886414,247.188354 
	C627.240540,255.642166 621.309570,263.953674 619.777405,274.399780 
	C619.193542,278.379791 618.863953,282.382477 619.863586,286.295013 
	C622.582886,296.937805 631.666443,301.325836 644.646423,298.106476 
	C656.584045,295.145660 667.040894,288.781403 677.827759,283.188385 
	C693.942993,274.832520 709.963318,266.215881 727.313477,260.613342 
	C737.784180,257.232208 748.479370,256.200562 759.224854,259.672241 
	C763.409363,261.024170 767.149048,263.114105 770.247375,266.295654 
	C777.007507,273.237427 777.594055,281.652649 771.553162,289.271881 
	C765.131958,297.370667 756.735474,303.084747 747.895813,308.209229 
	C743.718689,310.630829 739.403809,312.856079 735.426147,315.572693 
	C724.107483,323.302948 718.201294,339.457184 721.640076,352.615082 
	C724.662292,364.179443 736.995239,372.799469 751.451294,373.716492 
	C759.927246,374.254150 768.453186,373.096313 776.894104,374.628906 
	C781.195862,375.409912 785.296509,376.724640 789.076843,378.914337 
	C792.618164,380.965546 795.052002,383.862518 794.632324,388.207123 
	C794.207886,392.601685 791.619141,395.555542 787.545105,397.075745 
	C783.130127,398.723175 778.476746,399.221161 773.801147,399.287567 
	C770.081360,399.340454 766.515747,400.135498 763.044922,401.294250 
	C754.735046,404.068481 752.109497,411.468109 757.075623,418.720551 
	C761.856079,425.701813 768.890137,429.789734 776.620850,432.850525 
	C784.109863,435.815613 792.114014,436.668213 799.819763,438.723602 
	C807.672485,440.818207 814.970581,444.065308 819.986816,450.833496 
	C829.755920,464.014618 824.545776,480.711426 809.079346,486.076569 
	C800.677246,488.991211 792.011597,488.835968 783.377747,487.802277 
	C778.136719,487.174805 773.024414,487.506134 768.013916,488.769165 
	C759.846191,490.828003 756.351562,497.843445 759.165466,505.834167 
	C762.528564,515.384583 770.364685,519.960510 778.999329,523.565674 
	C787.140076,526.964722 795.586487,529.731323 802.816772,534.986511 
	C809.009338,539.487366 814.153931,544.798157 815.538513,552.780396 
	C817.162231,562.141235 811.845764,569.498962 802.457031,571.288269 
	C796.038513,572.511475 789.864746,571.869629 783.804077,569.723389 
	C774.859131,566.555664 766.019470,563.077026 757.011902,560.103577 
	C748.293457,557.225525 739.278748,556.904724 730.425476,559.334106 
	C720.269470,562.121033 716.520081,569.949341 720.178833,579.904907 
	C724.283508,591.073914 733.225586,598.233887 741.932434,605.466248 
	C748.977295,611.318115 756.507263,616.584106 763.587036,622.396179 
	C771.036682,628.511902 777.160950,635.708435 779.586792,645.374268 
	C783.801392,662.168457 772.413574,673.009521 757.660461,669.541382 
	C750.874695,667.946228 744.789246,665.150635 738.832825,661.786560 
	C730.420105,657.035034 722.111206,652.080994 713.539307,647.635010 
	C703.931885,642.651794 693.645142,639.830261 682.724854,641.013672 
	C664.219788,643.018921 654.270203,657.817444 658.825195,676.025391 
	C660.177307,681.430359 662.647095,686.290588 665.456482,691.043457 
	C670.538513,699.640808 676.252075,707.895386 679.971008,717.245239 
	C682.077942,722.542236 683.408447,728.007324 683.347534,733.759338 
	C683.231750,744.681091 675.671387,752.475220 664.683716,753.386475 
	C652.939941,754.360413 643.257568,749.272583 634.046265,743.112854 
	C622.394043,735.320862 612.241638,725.573914 601.132629,717.068237 
	C592.251831,710.268616 583.194336,703.674133 571.327576,703.083801 
	C559.065491,702.473877 553.874084,707.230591 554.457153,719.497375 
	C555.126770,733.583923 560.508789,746.367188 566.636963,758.791809 
	C572.231445,770.134338 578.690552,781.060364 582.253174,793.325378 
	C583.705261,798.324524 584.566467,803.346680 584.342773,808.578369 
	C583.976074,817.151550 581.185242,824.387207 572.902893,828.109558 
	C564.311096,831.971008 555.885925,831.075928 548.401489,825.296082 
	C539.641602,818.531311 537.071838,808.884583 536.613220,798.335999 
	C536.035889,785.058472 536.421631,771.671326 532.658508,758.711792 
	C531.349304,754.203186 529.751526,749.834106 526.093079,746.576965 
	C522.368347,743.261047 519.466736,743.431396 516.404968,747.419128 
	C513.309509,751.450867 511.897705,756.314331 510.227539,761.007324 
	C507.528442,768.591797 503.129272,774.917480 496.869324,779.952637 
	C483.232574,790.921082 469.147736,786.979370 463.332275,770.559692 
	C462.722168,768.837097 462.157867,767.080505 461.784454,765.295288 
	C460.695374,760.088623 459.713837,754.859558 458.655365,749.211670 
M520.614868,466.134308 
	C519.612854,478.847046 520.237366,491.390045 524.288025,503.618378 
	C537.509399,543.531860 575.361755,568.192261 620.116089,563.366882 
	C671.406555,557.836853 705.468079,513.367249 697.402527,462.852509 
	C689.274475,411.946594 641.719849,381.158813 593.715027,389.854401 
	C554.043091,397.040558 527.268616,425.199585 520.614868,466.134308 
M330.458588,444.950500 
	C326.512695,458.386719 325.180664,472.027832 327.518066,485.897797 
	C335.769135,534.858887 381.934021,564.369263 424.363281,558.966125 
	C476.300018,552.352173 511.016571,503.123840 498.574860,452.448669 
	C488.063232,409.634552 446.204285,379.888306 402.998566,385.590057 
	C367.290039,390.302460 343.074280,410.190582 330.458588,444.950500 
M398.598969,293.070740 
	C395.117859,296.441254 390.889191,298.143219 386.138397,298.768066 
	C384.338013,299.004913 382.390137,299.200836 382.102936,301.657349 
	C381.826660,304.020203 383.138123,305.307617 385.032227,306.363525 
	C393.144958,310.886139 403.846710,309.288666 410.799011,302.459747 
	C417.874023,295.510284 418.794220,288.313019 413.924683,278.965851 
	C412.674408,276.565857 411.184021,274.744324 408.190002,275.167542 
	C405.345062,275.569672 404.582336,277.808441 404.076233,280.157928 
	C403.126038,284.569427 401.998962,288.899170 398.598969,293.070740 
M294.253632,337.101929 
	C295.583557,337.576660 296.771790,338.889099 298.339020,337.873352 
	C299.147095,336.300659 298.415039,335.058167 297.321899,334.318787 
	C289.076355,328.741669 281.377899,322.168518 271.439331,319.580475 
	C267.635803,318.590057 264.114685,319.391388 261.152863,321.951233 
	C259.521515,323.361176 259.838745,325.422363 260.642487,327.068115 
	C262.527466,330.927643 266.264740,330.822388 269.763916,330.663025 
	C278.359833,330.271545 286.259094,332.400970 294.253632,337.101929 
M233.886765,400.232056 
	C233.556824,400.202820 233.227295,400.154419 232.896881,400.147430 
	C230.045013,400.087036 227.099106,399.956116 225.509735,402.981323 
	C224.791870,404.347717 224.749069,406.047363 225.898849,407.189636 
	C228.317642,409.592590 231.089691,408.659821 233.762268,407.582794 
	C235.619873,406.834198 237.103912,406.947601 238.704407,408.457977 
	C242.966599,412.480103 251.200165,412.915588 256.073639,409.682739 
	C257.860107,408.497681 258.168396,406.817352 258.070892,404.925537 
	C257.966248,402.894440 256.311249,402.656342 254.873062,402.474426 
	C248.162094,401.625671 241.545319,399.856201 233.886765,400.232056 
M503.092651,266.687744 
	C508.472046,265.922974 511.708771,262.301361 513.479248,257.714935 
	C514.571045,254.886734 512.211304,252.532288 509.634186,250.099670 
	C505.205536,255.267761 499.645050,256.899414 493.095917,256.449249 
	C489.379425,256.193787 489.651489,259.120331 491.201172,261.225800 
	C493.877594,264.862091 497.505188,267.100708 503.092651,266.687744 
M477.396088,274.375183 
	C473.612793,274.016602 472.275940,278.912506 468.785339,278.639313 
	C463.366089,278.215240 462.968018,283.560089 459.964844,285.868896 
	C458.816620,286.751648 460.327423,288.253876 461.347931,289.107391 
	C465.023712,292.181671 472.461426,291.240387 476.959137,287.164185 
	C480.600189,283.864349 481.001801,279.343292 477.396088,274.375183 
M717.423218,276.876892 
	C715.678101,278.166534 713.083984,278.370300 711.597900,281.863586 
	C720.390686,281.434784 728.506226,282.611969 736.560974,280.756653 
	C738.920166,280.213257 740.051392,278.311707 739.700623,275.814209 
	C739.333740,273.202301 737.462769,272.268616 735.123413,272.144623 
	C728.991882,271.819702 723.362122,273.540100 717.423218,276.876892 
M620.602356,218.099274 
	C622.996826,216.815613 625.630737,215.488739 624.227173,212.127472 
	C623.325317,209.967545 621.454224,208.978210 618.917969,209.768250 
	C614.418274,211.169891 609.777222,218.234482 610.282959,223.506302 
	C613.585266,221.775284 616.766296,220.107864 620.602356,218.099274 
M234.831680,510.960907 
	C237.555649,515.633484 240.343307,512.781921 242.940643,510.896149 
	C244.120499,510.039490 245.113464,508.680969 243.658371,507.116852 
	C241.918411,505.246490 237.288834,505.945557 235.266739,508.452240 
	C234.890488,508.918610 234.879181,509.679352 234.831680,510.960907 
M384.581055,211.443848 
	C386.342468,208.627365 384.142029,207.394455 382.248413,206.652390 
	C380.057922,205.793976 378.893982,207.619965 378.434357,209.432861 
	C377.922363,211.452469 377.171692,214.013550 379.564453,215.191086 
	C382.462952,216.617477 382.768036,213.278702 384.581055,211.443848 
M320.885559,261.983887 
	C319.048035,263.626587 319.483246,265.124451 321.175140,266.543488 
	C322.687469,267.811951 324.368744,268.334137 326.231567,267.457581 
	C327.653809,266.788361 328.022064,265.507599 327.567535,264.107544 
	C326.932709,262.152100 325.463715,261.192169 323.412628,261.232819 
	C322.764130,261.245697 322.119690,261.465149 320.885559,261.983887 
M296.524658,682.061646 
	C295.434448,680.028442 293.911804,679.598145 292.134827,681.103638 
	C290.833527,682.206238 289.936401,683.654114 290.682678,685.450195 
	C291.211578,686.723145 292.250122,687.795959 293.686371,687.586426 
	C296.408569,687.189331 296.851410,685.115417 296.524658,682.061646 
z"/>
<path fill="#000000" opacity="1.000000" stroke="none" 
	d="
M768.709534,762.237183 
	C754.197937,740.259277 735.706116,722.664917 715.046326,707.174805 
	C711.059387,704.185486 706.881836,701.337158 704.252808,696.926147 
	C703.439758,695.561829 702.143188,694.034546 703.613831,692.391357 
	C704.836975,691.024658 706.585022,690.826111 708.234985,691.379822 
	C710.749084,692.223633 713.399048,692.947876 715.626648,694.316589 
	C742.143982,710.608765 771.407043,719.031128 801.648804,724.856079 
	C815.411072,727.506836 828.949036,731.025513 840.446838,739.734863 
	C847.859802,745.349976 854.335388,751.693909 857.220947,760.887817 
	C862.132874,776.538330 849.806458,799.650452 825.845093,799.290894 
	C805.691162,798.988464 790.185181,789.938965 777.972961,774.466309 
	C774.878967,770.546204 771.928406,766.512817 768.709534,762.237183 
M832.209717,775.704224 
	C835.337830,779.681885 836.364014,776.291382 838.352417,774.001892 
	C835.895752,773.958252 834.231201,774.554077 832.209717,775.704224 
z"/>
<path fill="#000000" opacity="1.000000" stroke="none" 
	d="
M260.058472,252.880798 
	C269.253235,259.318726 273.952942,269.221100 281.773132,276.701569 
	C278.992706,279.302521 276.363403,278.344543 273.905243,277.759979 
	C257.980042,273.972839 241.883270,271.719391 225.478470,272.358185 
	C219.170898,272.603821 212.912170,273.689789 206.561081,273.368286 
	C199.044250,272.987793 192.660248,270.060974 187.445419,264.778717 
	C180.047867,257.285553 180.611740,246.498276 188.821472,239.136032 
	C198.513504,230.444504 209.889191,230.092148 221.665024,233.374069 
	C235.617569,237.262634 248.049164,244.300064 260.058472,252.880798 
M194.247559,251.198212 
	C195.239105,253.814621 197.371658,253.886963 199.583679,253.434097 
	C201.728256,252.995026 203.796341,253.036224 205.955399,253.398697 
	C209.044708,253.917328 212.590378,254.815781 212.853165,249.829086 
	C213.086655,245.398254 209.611420,241.058899 205.961349,241.051422 
	C200.919724,241.041092 195.492142,245.354477 194.247559,251.198212 
z"/>
<path fill="#000000" opacity="1.000000" stroke="none" 
	d="
M896.561768,450.006348 
	C880.041992,451.805542 864.365784,449.257874 848.862000,445.267639 
	C845.330566,444.358704 841.890076,442.960144 839.200378,440.295349 
	C836.147461,437.270569 836.193298,434.190643 839.197876,431.156097 
	C839.779480,430.568756 840.397644,429.935944 841.125000,429.586700 
	C854.340820,423.241180 865.811523,413.809570 879.332336,408.005615 
	C885.718140,405.264404 892.303406,403.536499 899.235901,405.132782 
	C910.608826,407.751495 918.450195,417.768768 918.182312,428.953583 
	C917.942932,438.946655 910.457581,446.904907 898.922607,449.435455 
	C898.272888,449.577972 897.630371,449.753479 896.561768,450.006348 
M891.784424,419.259125 
	C886.875061,416.052155 882.968933,416.749573 878.677368,421.645905 
	C881.673706,422.920349 884.839050,422.835236 887.950623,422.859314 
	C889.922302,422.874573 892.088928,422.728271 891.784424,419.259125 
z"/>
<path fill="#000000" opacity="1.000000" stroke="none" 
	d="
M143.415283,519.478760 
	C148.509232,521.644104 153.228485,523.735413 158.030853,525.614258 
	C162.852844,527.500854 167.623535,529.459961 171.821991,532.547241 
	C173.166077,533.535645 174.523132,534.727478 173.986618,536.677856 
	C173.524582,538.357605 171.955627,538.974548 170.491287,539.096741 
	C155.110550,540.380127 141.344849,546.882751 127.173431,552.174561 
	C118.069221,555.574219 108.760590,556.789551 99.649567,551.689880 
	C86.666786,544.423096 85.183029,526.912048 96.881531,517.694824 
	C106.114571,510.420074 116.538307,510.342957 127.273933,513.157471 
	C132.756470,514.594849 137.998764,516.772888 143.415283,519.478760 
M122.423187,521.498779 
	C119.483513,521.038147 116.553551,520.306641 113.601166,520.200867 
	C111.147957,520.112976 109.621025,521.814819 109.481155,524.307129 
	C109.371399,526.262634 110.629379,527.485046 112.477257,527.643127 
	C116.829865,528.015564 120.485870,525.985779 123.934708,523.704346 
	C124.735451,523.174683 123.732651,522.277283 122.423187,521.498779 
z"/>
<path fill="#000000" opacity="1.000000" stroke="none" 
	d="
M418.269226,804.343994 
	C426.301819,791.521301 435.054626,779.563416 441.260376,765.848450 
	C443.486267,767.009583 443.034485,768.829590 442.854034,770.299500 
	C440.907806,786.152039 443.350372,801.415405 448.644836,816.366943 
	C450.642670,822.008667 452.189148,827.812988 452.256195,833.872986 
	C452.381256,845.175842 446.440887,853.170105 436.527832,855.135986 
	C425.557404,857.311523 414.470886,851.951843 410.432648,842.283386 
	C407.018341,834.108826 408.384918,825.983398 411.322815,817.994080 
	C413.052155,813.291321 415.486938,808.929932 418.269226,804.343994 
M424.826477,813.097168 
	C424.538910,814.769104 425.303925,816.122559 426.859192,815.217957 
	C428.672577,814.163269 429.061554,812.153870 427.701691,810.236633 
	C426.057495,810.408447 425.830200,811.750122 424.826477,813.097168 
z"/>
<path fill="#000000" opacity="1.000000" stroke="none" 
	d="
M556.092590,190.862762 
	C554.447937,183.082047 551.698914,176.156143 548.553772,169.328232 
	C543.289612,157.900055 539.055298,146.245575 541.644531,133.241470 
	C543.885559,121.986198 551.925537,115.767311 563.480042,116.666595 
	C573.654236,117.458458 581.887634,126.274971 582.375061,136.551254 
	C582.732605,144.089432 581.163940,151.180908 577.622864,157.715012 
	C571.451233,169.102905 567.609863,181.197403 565.314880,193.896729 
	C564.484924,198.488861 563.505432,203.215591 559.646729,207.731506 
	C556.626465,202.010529 557.740967,196.327682 556.092590,190.862762 
M558.267700,131.094193 
	C554.067261,130.122726 551.692627,131.983643 550.829346,136.906586 
	C550.601196,138.207825 550.099548,139.656662 551.798462,140.292740 
	C553.019043,140.749710 554.646484,141.269196 555.543640,140.137283 
	C557.491333,137.679871 560.518494,135.480423 558.267700,131.094193 
z"/>
<path fill="#000000" opacity="1.000000" stroke="none" 
	d="
M701.147827,178.638062 
	C714.004700,175.258255 724.907837,181.694504 725.833801,193.481415 
	C726.481750,201.729965 721.852966,208.066071 715.982544,213.308792 
	C712.649902,216.285034 708.995850,218.991211 705.183594,221.323868 
	C693.161316,228.680084 683.782349,238.573029 676.030945,250.236862 
	C673.058105,254.710251 669.913574,259.226410 664.631592,262.219147 
	C663.216858,258.176788 665.087280,255.144135 666.362793,252.388107 
	C673.100952,237.829071 677.904480,222.813385 680.330994,206.860611 
	C682.231384,194.366379 688.117004,183.881363 701.147827,178.638062 
M698.387695,196.813812 
	C700.075623,195.477707 701.807617,194.192642 703.435852,192.787384 
	C704.506775,191.863083 705.171936,190.638763 704.158936,189.298965 
	C703.156006,187.972427 701.827881,188.334900 700.574097,188.968307 
	C698.151367,190.192276 696.208496,191.978241 694.748413,194.247543 
	C694.053101,195.328079 692.976685,196.610535 694.026001,197.851364 
	C695.411682,199.489944 696.672302,198.128510 698.387695,196.813812 
z"/>
<path fill="#000000" opacity="1.000000" stroke="none" 
	d="
M851.706909,646.592896 
	C847.864319,644.348511 845.052856,641.480652 842.684143,638.268250 
	C835.650940,628.729858 827.640808,620.095581 819.204590,611.799072 
	C816.479980,609.119446 812.132751,606.117310 814.318665,601.819397 
	C816.525757,597.479797 821.605835,598.796814 825.671387,599.200867 
	C840.329590,600.657593 854.566772,603.601196 867.394348,611.397766 
	C874.016541,615.422791 879.248169,620.588257 881.273865,628.289185 
	C884.066040,638.903687 877.045593,648.505432 866.060242,649.312195 
	C861.170837,649.671265 856.422302,649.226379 851.706909,646.592896 
M850.605530,612.151428 
	C849.213928,611.743225 847.853882,610.878784 845.904297,612.105347 
	C848.343872,615.822327 851.442871,618.634399 855.461121,620.372620 
	C856.920166,621.003723 858.515259,620.771851 859.393372,619.210266 
	C860.311279,617.578003 859.501343,616.157104 858.113831,615.401611 
	C855.938232,614.216980 853.585449,613.357727 850.605530,612.151428 
z"/>
<path fill="#000000" opacity="1.000000" stroke="none" 
	d="
M824.480896,238.622025 
	C814.747681,240.660721 806.012878,244.291122 797.317627,248.073441 
	C795.615356,248.813889 793.550415,250.255508 791.781372,248.385681 
	C790.093689,246.601791 791.175659,244.372406 792.111450,242.797333 
	C798.133301,232.661819 802.517273,221.564072 809.540955,212.048813 
	C818.467712,199.955429 831.785400,196.711304 843.240479,203.336227 
	C855.605591,210.487457 855.815125,224.742874 843.692261,232.284348 
	C837.911804,235.880325 831.359924,237.075378 824.480896,238.622025 
M824.667053,213.778946 
	C824.128662,211.126907 822.267639,211.358307 820.501587,212.096222 
	C817.841919,213.207489 815.900391,214.998108 815.918213,218.572754 
	C819.728149,218.588943 822.967834,218.254547 824.667053,213.778946 
z"/>
<path fill="#000000" opacity="1.000000" stroke="none" 
	d="
M292.676666,774.888794 
	C294.023407,767.010010 297.799316,760.781616 302.892273,755.398987 
	C312.252808,745.505920 322.999237,736.991394 331.787109,726.510986 
	C332.588074,725.555847 333.521271,724.423828 335.093079,724.630127 
	C335.892853,725.586487 335.414764,726.562805 335.080872,727.452087 
	C331.407074,737.235596 330.427582,747.437988 330.316467,757.776062 
	C330.248444,764.107971 329.530090,770.375793 328.198486,776.550720 
	C326.163300,785.988403 319.366913,792.368774 309.920563,793.972351 
	C299.391815,795.759705 291.291595,787.002991 292.676666,774.888794 
z"/>
<path fill="#000000" opacity="1.000000" stroke="none" 
	d="
M160.530945,498.410217 
	C155.499969,490.993103 156.259766,485.922394 162.854568,480.441376 
	C170.648743,473.963562 180.231903,472.332275 189.734406,470.824127 
	C204.057587,468.550781 218.535751,468.394684 233.006973,468.733765 
	C235.928406,468.802185 240.079376,468.574890 240.467133,472.059235 
	C240.883667,475.802490 236.583206,476.111694 233.821884,476.563629 
	C219.806763,478.857330 206.763901,483.370178 195.684799,492.557159 
	C192.352188,495.320648 189.071609,498.135529 185.334457,500.341156 
	C177.119614,505.189453 167.830902,504.547150 160.530945,498.410217 
M175.661377,486.222168 
	C176.631607,484.421570 178.166306,482.795715 177.693985,480.423187 
	C174.561462,479.890747 172.243011,480.732605 170.746140,483.311798 
	C170.143097,484.350891 170.060684,485.638184 170.844116,486.599274 
	C172.154907,488.207336 173.696579,487.897766 175.661377,486.222168 
z"/>
<path fill="#000000" opacity="1.000000" stroke="none" 
	d="
M787.794067,358.956268 
	C783.823853,359.150330 780.287048,359.181976 776.934937,358.061279 
	C773.504517,356.914398 772.857849,353.767303 776.035034,352.287140 
	C784.527832,348.330566 788.905762,340.528870 794.799866,334.049347 
	C802.321106,325.781128 811.182800,319.603729 823.334839,322.554840 
	C831.603943,324.562927 836.532837,329.693939 837.251648,336.398499 
	C838.005066,343.426514 834.536255,348.586639 826.413696,352.582703 
	C817.989258,356.727356 808.802185,357.246948 799.712830,358.178131 
	C795.907593,358.567963 792.074646,358.687439 787.794067,358.956268 
M810.825439,335.686371 
	C812.802246,335.740601 814.779541,335.851410 816.755676,335.832886 
	C818.671204,335.814941 820.606201,335.440033 820.661560,333.045898 
	C820.717102,330.642090 819.051880,329.523407 816.822510,329.414673 
	C812.240662,329.191193 808.757629,331.314056 805.687195,334.411041 
	C806.992920,336.453918 808.622314,335.475922 810.825439,335.686371 
z"/>
<path fill="#000000" opacity="1.000000" stroke="none" 
	d="
M228.907974,665.651184 
	C223.232574,674.354736 217.281876,682.338745 209.250916,688.523315 
	C204.279587,692.351746 198.841293,695.132690 192.449188,695.381592 
	C185.773636,695.641541 181.172592,692.275574 178.928192,685.786865 
	C176.977615,680.147644 178.617004,674.702698 183.822662,670.856812 
	C191.162216,665.434631 199.715073,663.380127 208.634705,662.841309 
	C213.526443,662.545776 218.143036,661.425537 222.651978,659.646606 
	C224.643204,658.860901 226.750244,657.504700 228.712860,659.261108 
	C230.647369,660.992371 229.786880,663.238586 228.907974,665.651184 
z"/>
<path fill="#000000" opacity="1.000000" stroke="none" 
	d="
M893.141479,492.670349 
	C887.557312,501.484863 878.453125,503.871490 868.521545,499.358490 
	C866.564148,498.469116 864.674988,497.352570 862.921265,496.105957 
	C856.346619,491.432159 849.413635,487.625763 841.317566,486.294403 
	C839.131409,485.934906 836.884033,485.151825 836.574158,482.582031 
	C836.245667,479.857605 838.559814,478.969025 840.562744,478.156677 
	C852.112244,473.472504 864.054443,470.938202 876.589844,471.660431 
	C888.816101,472.364868 896.182556,481.448547 893.141479,492.670349 
M881.283875,484.745667 
	C882.810425,483.341187 882.978333,481.660889 881.318542,480.511902 
	C878.875671,478.820709 876.129272,477.939301 872.604858,479.921661 
	C875.758179,481.653015 876.260254,486.216156 881.283875,484.745667 
z"/>
<path fill="#000000" opacity="1.000000" stroke="none" 
	d="
M142.341583,392.379761 
	C152.598877,394.920319 161.266846,399.835022 169.645554,405.351685 
	C171.081436,406.297119 172.480301,407.416412 171.982285,409.359375 
	C171.461990,411.389160 169.541138,411.357605 167.908096,411.556030 
	C166.922974,411.675690 165.893387,411.792328 164.926392,411.639923 
	C157.890854,410.531097 152.008835,412.711975 146.330872,416.941772 
	C139.388229,422.113647 131.623749,423.788086 123.360390,419.637207 
	C112.594490,414.229248 111.776344,401.345245 121.780411,394.603180 
	C128.106461,390.339905 134.929214,390.516052 142.341583,392.379761 
M129.479141,397.532684 
	C127.279129,398.608887 126.541389,400.477020 127.878624,402.389557 
	C129.370178,404.522858 131.336945,403.507172 133.062119,402.266785 
	C134.971664,400.893829 136.904709,399.553558 139.219498,397.922913 
	C135.800232,396.778595 133.033508,397.041565 129.479141,397.532684 
z"/>
<path fill="#000000" opacity="1.000000" stroke="none" 
	d="
M317.428192,195.188461 
	C325.256714,196.837860 329.319611,202.219940 332.610291,208.409729 
	C336.398499,215.535339 338.500336,223.230453 340.013245,231.107040 
	C340.337158,232.793320 340.462280,234.469635 338.811676,235.616806 
	C337.290741,236.673874 335.802399,235.876038 334.610687,235.103546 
	C327.318085,230.376358 319.383850,226.883392 311.704285,222.895111 
	C306.445160,220.163834 303.822418,215.337143 302.998199,209.608124 
	C301.755829,200.972626 307.816803,194.779694 317.428192,195.188461 
z"/>
<path fill="#000000" opacity="1.000000" stroke="none" 
	d="
M200.700348,345.987610 
	C208.760910,350.762390 216.214935,355.810303 224.436020,359.542206 
	C226.388641,360.428650 228.513184,361.700806 228.079346,364.334686 
	C227.671814,366.808746 225.319443,367.044006 223.387833,367.246826 
	C214.465012,368.183777 205.689194,370.407532 196.669006,370.433502 
	C188.226425,370.457764 181.716583,365.039490 180.009155,356.758362 
	C178.705582,350.435974 182.833511,344.582397 189.247101,343.748352 
	C193.155975,343.240021 196.872467,343.942566 200.700348,345.987610 
z"/>
<path fill="#000000" opacity="1.000000" stroke="none" 
	d="
M387.987244,761.691528 
	C383.682892,769.573242 383.469482,777.991882 382.387024,786.197510 
	C381.781769,790.785767 380.126617,794.878296 377.148224,798.398926 
	C373.342651,802.897461 367.832184,804.464172 363.339874,802.422546 
	C358.750031,800.336609 356.094635,795.275574 356.850189,789.524658 
	C357.489471,784.658936 359.300995,780.182068 362.383911,776.327942 
	C367.872040,769.466919 374.900787,764.412476 382.313019,759.891174 
	C384.389893,758.624268 387.038269,757.213623 387.987244,761.691528 
z"/>
<path fill="#000000" opacity="1.000000" stroke="none" 
	d="
M430.057495,164.977112 
	C426.877808,161.314240 423.933533,157.921844 420.937805,154.575485 
	C418.008972,151.303864 415.639771,147.729553 414.664673,143.378082 
	C413.167847,136.698105 415.488129,131.232727 420.695648,129.099075 
	C426.767059,126.611465 433.357727,128.543991 437.010284,133.949493 
	C440.329468,138.861603 441.093750,144.593002 440.982422,150.199524 
	C440.844421,157.152176 439.747131,164.091537 438.919556,171.019363 
	C438.772217,172.252686 438.521790,173.685486 436.782623,174.942749 
	C432.791840,173.103943 432.906647,168.142609 430.057495,164.977112 
z"/>
<path fill="#000000" opacity="1.000000" stroke="none" 
	d="
M557.078491,904.062988 
	C548.963989,901.870605 545.529358,897.307678 544.935669,887.743591 
	C544.574585,881.924988 545.562683,876.170288 546.903687,870.515198 
	C547.412903,868.367432 548.540588,866.449524 550.966309,865.919495 
	C553.386719,865.390625 554.497009,867.186584 555.758118,868.756348 
	C557.730713,871.211548 559.732605,873.647583 561.819763,876.005371 
	C564.966797,879.560669 567.237244,883.505066 567.987061,888.272400 
	C569.275208,896.461792 565.586487,902.060181 557.078491,904.062988 
z"/>
<path fill="#000000" opacity="1.000000" stroke="none" 
	d="
M833.313477,522.954163 
	C830.955994,521.538818 829.310120,519.881409 827.985718,517.953674 
	C824.067688,512.250427 818.771606,508.212891 811.697998,505.513641 
	C815.389709,502.737030 818.633789,503.744324 821.628906,503.695679 
	C830.508789,503.551300 839.178650,505.108368 847.578308,507.885406 
	C854.360840,510.127808 858.335815,515.488037 857.156494,520.109009 
	C856.122070,524.162109 849.593994,527.031128 843.102722,526.086426 
	C839.821960,525.609009 836.550842,524.906738 833.313477,522.954163 
z"/>
<path fill="#000000" opacity="1.000000" stroke="none" 
	d="
M145.294861,299.638885 
	C140.666199,300.664978 136.586563,300.101837 132.698395,298.430176 
	C127.591934,296.234741 124.740005,290.825745 125.894722,285.915710 
	C126.993446,281.243744 131.813629,278.005035 137.347168,278.220886 
	C145.439026,278.536499 157.659546,287.681305 160.388824,295.313812 
	C161.570114,298.617310 160.252106,300.248291 157.107132,300.263245 
	C153.313293,300.281311 149.517166,299.820770 145.294861,299.638885 
z"/>
<path fill="#000000" opacity="1.000000" stroke="none" 
	d="
M897.842957,328.279053 
	C894.075989,327.968903 890.744446,327.799774 887.459595,327.314850 
	C882.200256,326.538422 880.219055,322.609985 882.515259,317.836029 
	C885.419983,311.796906 894.564758,306.632141 901.134155,307.320557 
	C906.836365,307.918121 911.007202,311.967865 911.305603,317.196747 
	C911.620422,322.714996 908.824219,326.177643 902.730774,327.662537 
	C901.289185,328.013855 899.778381,328.080688 897.842957,328.279053 
z"/>
<path fill="#000000" opacity="1.000000" stroke="none" 
	d="
M832.414673,380.446564 
	C835.048462,377.757568 837.802368,376.027283 841.188599,375.352509 
	C846.103882,374.373077 851.235291,376.749390 852.833984,380.817444 
	C854.392029,384.782104 852.511230,389.605377 848.104858,392.254028 
	C846.136536,393.437195 843.944763,394.325684 841.755188,395.046539 
	C837.979309,396.289642 834.112793,397.261810 830.714600,399.442810 
	C829.556824,400.185852 828.316833,400.780884 827.026672,399.860687 
	C825.796570,398.983337 825.633484,397.651306 825.970703,396.275269 
	C827.311646,390.803192 828.412109,385.231018 832.414673,380.446564 
z"/>
<path fill="#000000" opacity="1.000000" stroke="none" 
	d="
M598.785278,157.222412 
	C603.462219,156.041428 607.131226,156.900803 609.564758,160.841537 
	C612.125305,164.987991 610.971191,168.950180 608.189453,172.368484 
	C604.268188,177.187057 598.851379,180.294662 593.870239,183.856415 
	C592.184448,185.061798 589.940613,184.881149 589.830322,182.259415 
	C589.559631,175.825150 588.832214,169.259857 591.885437,163.187805 
	C593.266418,160.441483 595.377197,158.353638 598.785278,157.222412 
z"/>
<path fill="#000000" opacity="1.000000" stroke="none" 
	d="
M797.333801,696.729004 
	C794.270447,692.849976 792.777771,688.567993 791.223267,684.389465 
	C789.588440,679.994873 791.845398,677.170654 796.571716,677.383057 
	C800.633362,677.565552 804.338257,679.156860 807.832825,681.128845 
	C814.264709,684.758301 816.412048,690.868835 813.205750,696.094849 
	C810.036316,701.260803 803.945801,701.615234 797.333801,696.729004 
z"/>
<path fill="#000000" opacity="1.000000" stroke="none" 
	d="
M247.476654,775.533081 
	C245.985504,776.645325 244.847076,777.674622 243.518112,778.297241 
	C240.263657,779.821960 237.004089,779.810791 234.188568,777.317993 
	C231.189133,774.662598 230.782562,771.147278 232.203598,767.705872 
	C234.975098,760.994019 240.473419,757.308838 247.393829,756.133423 
	C251.089752,755.505615 253.438293,757.745972 253.290649,761.726807 
	C253.099274,766.886414 251.302811,771.453491 247.476654,775.533081 
z"/>
<path fill="#000000" opacity="1.000000" stroke="none" 
	d="
M117.157310,716.803894 
	C117.715050,715.703003 118.023727,714.909180 118.530380,714.272888 
	C122.757957,708.964355 131.848892,706.969849 135.833603,710.440735 
	C138.803772,713.027893 137.563812,721.896606 133.442139,726.362854 
	C130.279724,729.789673 126.447365,731.400330 121.830345,729.433350 
	C117.557335,727.612854 116.210846,724.060242 117.157310,716.803894 
z"/>
<path fill="#000000" opacity="1.000000" stroke="none" 
	d="
M690.811279,769.335876 
	C691.253113,767.909424 691.863098,767.072571 692.907288,766.891846 
	C697.692505,766.063110 701.276917,768.521362 704.289612,771.669678 
	C707.218994,774.730835 709.206726,778.353699 707.539124,782.904053 
	C706.395996,786.023499 704.114746,787.755127 700.917725,788.140625 
	C697.585876,788.542358 695.183655,786.805115 693.488586,784.133179 
	C690.698425,779.735107 690.407410,774.804321 690.811279,769.335876 
z"/>
<path fill="#000000" opacity="1.000000" stroke="none" 
	d="
M959.874878,514.161987 
	C962.428284,519.689514 961.745789,523.349731 957.831665,525.725647 
	C954.276672,527.883606 950.748108,527.648987 947.937561,524.515991 
	C945.048340,521.295349 944.868896,517.630981 947.503174,514.080078 
	C950.395752,510.181152 954.688416,510.146210 959.874878,514.161987 
z"/>
<path fill="#000000" opacity="1.000000" stroke="none" 
	d="
M261.320435,201.086395 
	C267.858765,201.938141 270.756287,204.857605 270.288025,209.655930 
	C269.888702,213.748230 266.864624,216.362305 262.511902,216.366714 
	C258.203400,216.371078 255.559357,214.028824 254.905334,210.008057 
	C254.161682,205.436234 256.466461,202.438812 261.320435,201.086395 
z"/>
<path fill="#000000" opacity="1.000000" stroke="none" 
	d="
M81.015030,582.520020 
	C87.891090,581.014771 92.472481,584.766663 90.860374,590.178223 
	C89.975876,593.147400 87.976311,594.994568 84.762642,595.268555 
	C81.738487,595.526489 79.541100,594.161072 78.308998,591.512207 
	C76.682892,588.016235 77.601463,585.037231 81.015030,582.520020 
z"/>
<path fill="#000000" opacity="1.000000" stroke="none" 
	d="
M871.905151,566.754883 
	C868.857361,569.770203 865.805664,570.191284 862.799133,567.626282 
	C860.374329,565.557800 860.011353,562.777588 861.402527,559.956360 
	C862.745056,557.233826 865.183655,556.322449 868.066223,556.810974 
	C872.349548,557.536865 873.969849,561.449951 871.905151,566.754883 
z"/>
<path fill="#000000" opacity="1.000000" stroke="none" 
	d="
M202.778839,555.941589 
	C200.029358,555.735901 197.957535,555.089722 197.265717,551.783447 
	C201.181213,551.268799 205.613144,551.621216 206.323929,546.278687 
	C210.217941,550.130554 209.135086,553.092590 202.778839,555.941589 
z"/>
<path fill="#000000" opacity="1.000000" stroke="none" 
	d="
M578.491699,511.135681 
	C562.256104,507.574982 551.778015,498.462982 548.547729,482.274261 
	C544.756104,463.272766 557.726135,444.396149 577.192749,440.054688 
	C597.792297,435.460571 616.786377,445.868835 622.354919,464.802429 
	C629.008850,487.426544 612.044983,510.724579 588.423645,511.349854 
	C585.264465,511.433502 582.098511,511.255951 578.491699,511.135681 
M579.077026,452.386597 
	C577.591980,450.945343 575.729065,450.274292 573.773010,449.809387 
	C569.236328,448.731079 565.539917,450.330933 562.712402,453.756500 
	C559.659851,457.454803 558.600403,461.578430 560.909302,466.206970 
	C562.930115,470.257782 566.261719,471.855103 570.569214,472.002380 
	C575.512390,472.171387 579.414246,470.300629 581.576965,465.810303 
	C583.802185,461.190369 583.079224,456.780243 579.077026,452.386597 
z"/>
<path fill="#000000" opacity="1.000000" stroke="none" 
	d="
M462.865417,454.207245 
	C474.314728,470.079620 474.225189,488.159424 462.855804,501.962311 
	C452.426086,514.624329 433.283752,518.920593 417.822876,512.069336 
	C402.798553,505.411560 394.710541,490.299744 396.769104,472.732025 
	C398.538422,457.632568 411.311523,444.421265 426.585876,441.699738 
	C440.887634,439.151520 452.841309,443.307159 462.865417,454.207245 
M408.315338,461.785339 
	C406.946198,470.868896 416.403442,476.931885 424.748383,472.378357 
	C429.463470,469.805542 431.703888,464.142181 430.273773,459.133362 
	C428.839966,454.111633 424.799164,451.039612 419.612396,451.028168 
	C413.889496,451.015564 410.134369,454.336334 408.315338,461.785339 
z"/>
</svg>