<svg width="60" height="60" viewBox="-70 -68 140 136" xmlns="http://www.w3.org/2000/svg">
  <!-- Micro sparks -->
  <path d="M48,-44 L50,-52 L52,-44 L58,-42 L52,-40 L50,-32 L48,-40 L42,-42Z" fill="#C83C2F" opacity="0.9"/>
  <path d="M58,-26 L59,-30 L60,-26 L63,-25 L60,-24 L59,-20 L58,-24 L55,-25Z" fill="#C83C2F" opacity="0.5"/>
  <!-- Splatter dots -->
  <circle cx="-48" cy="34" r="3" fill="#FAFAFA" opacity="0.75"/>
  <circle cx="40" cy="38" r="2.2" fill="#FAFAFA" opacity="0.6"/>
  <!-- Splat body -->
  <path d="M0,-32 C4,-36 6,-46 8,-56 C10,-64 14,-60 14,-52 C14,-44 18,-36 26,-32 C32,-28 38,-34 44,-28 C50,-22 48,-14 42,-8 C36,-2 40,6 46,12 C52,18 50,26 44,28 C38,30 30,22 24,16 C18,10 14,16 16,24 C18,32 16,40 10,40 C4,40 2,32 0,26 C-2,20 -8,24 -14,30 C-20,36 -28,40 -32,34 C-36,28 -30,18 -24,12 C-18,6 -22,0 -30,-2 C-38,-4 -46,-8 -46,-16 C-46,-24 -38,-26 -30,-24 C-22,-22 -20,-28 -22,-34 C-24,-40 -18,-44 -10,-40 C-4,-36 -4,-32 0,-32Z" fill="#FAFAFA"/>
  <!-- Left eye -->
  <ellipse cx="-14" cy="-6" rx="11" ry="12" fill="#1A1A1A"/>
  <ellipse cx="-14" cy="-6" rx="9" ry="10" fill="#FAFAFA" opacity="0.12"/>
  <ellipse cx="-10" cy="-6" rx="6.5" ry="7" fill="#C83C2F"/>
  <ellipse cx="-10" cy="-6" rx="6.5" ry="7" fill="#A03028" opacity="0.3"/>
  <circle cx="-8" cy="-9" r="2.8" fill="#FAFAFA"/>
  <circle cx="-6" cy="-11" r="1" fill="#FAFAFA" opacity="0.6"/>
  <!-- Right eye -->
  <ellipse cx="18" cy="-4" rx="10.5" ry="10.5" fill="#1A1A1A"/>
  <ellipse cx="18" cy="-4" rx="8.5" ry="9" fill="#FAFAFA" opacity="0.12"/>
  <ellipse cx="22" cy="-4" rx="6" ry="6" fill="#C83C2F"/>
  <ellipse cx="22" cy="-4" rx="6" ry="6" fill="#A03028" opacity="0.3"/>
  <circle cx="24" cy="-7" r="2.4" fill="#FAFAFA"/>
  <circle cx="25.5" cy="-9" r="0.8" fill="#FAFAFA" opacity="0.6"/>
  <!-- Smirk -->
  <path d="M-2,12 Q8,20 20,14" fill="none" stroke="#1A1A1A" stroke-width="2.6" stroke-linecap="round"/>
</svg>
